# xmcd
#
# Track frame offsets: 
#        150
#        18136
#        38628
#        58796
#        87632
#        113312
#        125977
#        160610
#
# Disc length: 2438 seconds
#
# Revision: 0
# Processed by: cddbd v1.5.1PL2 Copyright (c) Steve Scherf et al.
# Submitted via: ExactAudioCopy v0.95a5
#
DISCID=5c098408
DTITLE=Colosseum  - Those Who Are About To Die Salute You 
DYEAR=1969
DGENRE=Progressive Rock
TTITLE0=Walking In The Park
TTITLE1=Plenty Hard Luck
TTITLE2=Mandarin
TTITLE3=Debut
TTITLE4=Beware The Ides Of March
TTITLE5=The Road She Walked Before
TTITLE6=Backwater Blues (Leadbetter)
TTITLE7=Those About To Die
EXTD=
EXTT0=
EXTT1=
EXTT2=
EXTT3=
EXTT4=
EXTT5=
EXTT6=
EXTT7=
PLAYORDER=
